<?xml version="1.0" encoding="UTF-8"?>
<svg version="1.1" xmlns="http://www.w3.org/2000/svg" width="65" height="52">
<path d="M0 0 C21.45 0 42.9 0 65 0 C65 17.16 65 34.32 65 52 C43.55 52 22.1 52 0 52 C0 34.84 0 17.68 0 0 Z " fill="#F6F9F8" transform="translate(0,0)"/>
<path d="M0 0 C1.010625 0.515625 2.02125 1.03125 3.0625 1.5625 C3.77277344 1.86285156 4.48304687 2.16320312 5.21484375 2.47265625 C7.59484768 3.6396529 9.2631561 4.60649681 11.0625 6.5625 C11.74518074 9.99165785 11.54455369 13.11447709 11.0625 16.5625 C12.0525 16.8925 13.0425 17.2225 14.0625 17.5625 C14.0625 19.2125 14.0625 20.8625 14.0625 22.5625 C12.0825 23.5525 12.0825 23.5525 10.0625 24.5625 C10.17851563 25.85285156 10.29453125 27.14320312 10.4140625 28.47265625 C11.26065702 41.83497971 11.26065702 41.83497971 8.08203125 46.41796875 C4.06316005 49.36676229 1.25863927 50.5625 -3.75 50.5625 C-5.3278125 50.0675 -5.3278125 50.0675 -6.9375 49.5625 C-7.80375 49.3975 -8.67 49.2325 -9.5625 49.0625 C-10.34625 48.8975 -11.13 48.7325 -11.9375 48.5625 C-13.3296875 48.2840625 -13.3296875 48.2840625 -14.75 48 C-15.471875 47.855625 -16.19375 47.71125 -16.9375 47.5625 C-16.999375 46.77875 -17.06125 45.995 -17.125 45.1875 C-17.393125 44.32125 -17.66125 43.455 -17.9375 42.5625 C-20.05535113 41.44464887 -20.05535113 41.44464887 -22.9375 40.5625 C-25.97618182 38.96426534 -28.95585174 37.26444302 -31.9375 35.5625 C-32.07276616 32.9774133 -32.17167653 30.39941248 -32.25 27.8125 C-32.29189453 27.08289063 -32.33378906 26.35328125 -32.37695312 25.6015625 C-32.42578125 23.453125 -32.42578125 23.453125 -31.9375 19.5625 C-29.5 17.25 -29.5 17.25 -26.9375 15.5625 C-25.58977097 12.44116256 -25.58977097 12.44116256 -24.9375 9.5625 C-24.35742188 9.54832031 -23.77734375 9.53414062 -23.1796875 9.51953125 C-17.13477357 9.15045235 -14.45846834 7.78862258 -9.9375 3.5625 C-6.69810481 1.12185979 -4.1961637 -0.62496055 0 0 Z " fill="#053004" transform="translate(41.9375,0.4375)"/>
<path d="M0 0 C1.010625 0.515625 2.02125 1.03125 3.0625 1.5625 C3.77277344 1.86285156 4.48304687 2.16320312 5.21484375 2.47265625 C7.59484768 3.6396529 9.2631561 4.60649681 11.0625 6.5625 C11.74518074 9.99165785 11.54455369 13.11447709 11.0625 16.5625 C12.0525 16.8925 13.0425 17.2225 14.0625 17.5625 C14.375 19.75 14.375 19.75 14.0625 22.5625 C13.2375 23.2225 12.4125 23.8825 11.5625 24.5625 C7.58987643 29.32964828 8.66922541 34.59346562 9.0625 40.5625 C8.0725 41.0575 8.0725 41.0575 7.0625 41.5625 C7.0625 38.5925 7.0625 35.6225 7.0625 32.5625 C4.0925 32.5625 1.1225 32.5625 -1.9375 32.5625 C-2.2675 33.5525 -2.5975 34.5425 -2.9375 35.5625 C-4.2575 35.2325 -5.5775 34.9025 -6.9375 34.5625 C-6.9375 33.5725 -6.9375 32.5825 -6.9375 31.5625 C-9.9075 31.5625 -12.8775 31.5625 -15.9375 31.5625 C-15.9375 29.9125 -15.9375 28.2625 -15.9375 26.5625 C-14.6175 26.5625 -13.2975 26.5625 -11.9375 26.5625 C-11.958125 25.510625 -11.97875 24.45875 -12 23.375 C-11.94853198 20.23545096 -11.67232813 17.59366604 -10.9375 14.5625 C-11.865625 14.5625 -12.79375 14.5625 -13.75 14.5625 C-15.8125 14.5625 -17.875 14.5625 -19.9375 14.5625 C-19.9375 15.2225 -19.9375 15.8825 -19.9375 16.5625 C-21.75 17.625 -21.75 17.625 -23.9375 18.5625 C-24.9275 18.2325 -25.9175 17.9025 -26.9375 17.5625 C-25.9475 14.9225 -24.9575 12.2825 -23.9375 9.5625 C-22.74125 9.500625 -21.545 9.43875 -20.3125 9.375 C-15.63807734 8.79993922 -13.41040238 6.73983622 -9.9375 3.5625 C-6.69473035 1.12488273 -4.19867469 -0.62533453 0 0 Z " fill="#042303" transform="translate(41.9375,0.4375)"/>
<path d="M0 0 C4.19360449 0.67097672 7.40334352 2.8558394 11 5 C11 8.63 11 12.26 11 16 C11.66 16 12.32 16 13 16 C11.4422692 19.82352106 9.08404742 22.29205593 6 25 C5.01 25 4.02 25 3 25 C0.77051019 22.04920467 -0.82859875 19.51420376 -2 16 C-1.01 16 -0.02 16 1 16 C0.67 14.68 0.34 13.36 0 12 C-1.32 12.33 -2.64 12.66 -4 13 C-6.0625 10.75 -6.0625 10.75 -8 8 C-7.75 5.6875 -7.75 5.6875 -7 4 C-4.69 3.34 -2.38 2.68 0 2 C0 1.34 0 0.68 0 0 Z " fill="#1CB115" transform="translate(39,4)"/>
<path d="M0 0 C1 2 1 2 0.0625 5.125 C-0.288125 6.07375 -0.63875 7.0225 -1 8 C0.98 7.67 2.96 7.34 5 7 C4.34 5.68 3.68 4.36 3 3 C6.63 3.66 10.26 4.32 14 5 C13.67 8.3 13.34 11.6 13 15 C9 16 9 16 6 16 C6 16.99 6 17.98 6 19 C6.66 19 7.32 19 8 19 C6.56680162 24.49392713 6.56680162 24.49392713 4.25 26.5625 C2 27 2 27 -4 24 C-4 19.38 -4 14.76 -4 10 C-4.66 9.67 -5.32 9.34 -6 9 C-5.38125 8.62875 -4.7625 8.2575 -4.125 7.875 C-1.4489404 5.51377094 -0.9063156 3.39868348 0 0 Z " fill="#16C30E" transform="translate(17,10)"/>
<path d="M0 0 C0.33 0.99 0.66 1.98 1 3 C1.680625 2.835 2.36125 2.67 3.0625 2.5 C6.4164822 1.92910941 9.60389805 1.93340977 13 2 C13.42565813 5.10122353 13.58745759 7.91327109 13 11 C11.04238053 13.47190933 8.91925813 14.84204792 6 16 C2.71870148 16 1.23184767 15.14137053 -1.5625 13.4375 C-4.10260929 11.66134332 -4.10260929 11.66134332 -8 12 C-8.66 8.7 -9.32 5.4 -10 2 C-3.375 0 -3.375 0 0 0 Z " fill="#1EB316" transform="translate(35,32)"/>
<path d="M0 0 C0.94875 0.185625 1.8975 0.37125 2.875 0.5625 C5.89868793 1.28686632 5.89868793 1.28686632 8 0 C8 1.65 8 3.3 8 5 C7.01 5 6.02 5 5 5 C5.3609375 5.44730469 5.721875 5.89460938 6.09375 6.35546875 C9.93138937 11.35506003 9.93138937 11.35506003 10.3125 14.9375 C10.209375 15.618125 10.10625 16.29875 10 17 C9.01 17 8.02 17 7 17 C7 17.66 7 18.32 7 19 C6.01 19 5.02 19 4 19 C4 18.01 4 17.02 4 16 C-0.95 16.495 -0.95 16.495 -6 17 C-6 15.35 -6 13.7 -6 12 C-4.68 12 -3.36 12 -2 12 C-2 9.69 -2 7.38 -2 5 C-1.34 5 -0.68 5 0 5 C0 3.35 0 1.7 0 0 Z " fill="#010901" transform="translate(32,15)"/>
<path d="M0 0 C2 4 2 4 2.5 6.6875 C2.665 7.450625 2.83 8.21375 3 9 C3.66 9.33 4.32 9.66 5 10 C5.17156579 15.06119094 5.02257384 18.322798 3 23 C2.83201738 25.70886941 2.83201738 25.70886941 3 28 C3.33 28 3.66 28 4 28 C4.05447047 29.41623216 4.09300508 30.83308191 4.125 32.25 C4.14820313 33.03890625 4.17140625 33.8278125 4.1953125 34.640625 C3.9828378 37.20731941 3.28654105 38.7916067 2 41 C1.0925 40.979375 0.185 40.95875 -0.75 40.9375 C-3.42672588 40.9889755 -5.46988052 41.2215017 -8 42 C-6.37660195 40.29115995 -4.70680947 38.62553283 -3 37 C-2.34 37 -1.68 37 -1 37 C-1.02356567 36.15236084 -1.02356567 36.15236084 -1.04760742 35.28759766 C-1.10987045 32.73349977 -1.14896136 30.17956129 -1.1875 27.625 C-1.21263672 26.73554687 -1.23777344 25.84609375 -1.26367188 24.9296875 C-1.27817383 23.65351562 -1.27817383 23.65351562 -1.29296875 22.3515625 C-1.3086792 21.56604004 -1.32438965 20.78051758 -1.34057617 19.97119141 C-1.22818604 19.32069824 -1.1157959 18.67020508 -1 18 C-0.01 17.34 0.98 16.68 2 16 C2.25030977 13.41619823 2.25030977 13.41619823 2 11 C1.34 10.67 0.68 10.34 0 10 C0 6.7 0 3.4 0 0 Z " fill="#E3EEED" transform="translate(53,7)"/>
<path d="M0 0 C-0.33 0.99 -0.66 1.98 -1 3 C-1.66 3 -2.32 3 -3 3 C-3 3.66 -3 4.32 -3 5 C-6.46153846 8 -6.46153846 8 -9 8 C-8.7525 9.1446875 -8.7525 9.1446875 -8.5 10.3125 C-7.74981211 14.34475993 -8.04674964 16.45973372 -10 20 C-10 18.35 -10 16.7 -10 15 C-10.928125 15 -11.85625 15 -12.8125 15 C-14.875 15 -16.9375 15 -19 15 C-19 15.66 -19 16.32 -19 17 C-20.8125 18.0625 -20.8125 18.0625 -23 19 C-23.99 18.67 -24.98 18.34 -26 18 C-25.01 15.36 -24.02 12.72 -23 10 C-21.80375 9.938125 -20.6075 9.87625 -19.375 9.8125 C-14.70057734 9.23743922 -12.47290238 7.17733622 -9 4 C-2.91025641 0 -2.91025641 0 0 0 Z " fill="#091909" transform="translate(41,0)"/>
<path d="M0 0 C0.99 0 1.98 0 3 0 C3 4.62 3 9.24 3 14 C4.32 14.66 5.64 15.32 7 16 C7.66 16.66 8.32 17.32 9 18 C11.60280568 17.67958603 11.60280568 17.67958603 14 17 C15.25664978 19.90600261 16 21.79604584 16 25 C15.34 25 14.68 25 14 25 C14 24.34 14 23.68 14 23 C13.360625 22.773125 12.72125 22.54625 12.0625 22.3125 C7.855805 20.50963071 3.9810729 18.25792194 0 16 C0 10.72 0 5.44 0 0 Z " fill="#090B0C" transform="translate(10,20)"/>
<path d="M0 0 C0.99 0.33 1.98 0.66 3 1 C2.67 6.28 2.34 11.56 2 17 C0.68 17.33 -0.64 17.66 -2 18 C-2 17.34 -2 16.68 -2 16 C-1.01 16 -0.02 16 1 16 C0.67 14.68 0.34 13.36 0 12 C-1.32 12.33 -2.64 12.66 -4 13 C-6.0625 10.75 -6.0625 10.75 -8 8 C-7.75 5.6875 -7.75 5.6875 -7 4 C-4.69 3.34 -2.38 2.68 0 2 C0 1.34 0 0.68 0 0 Z " fill="#137711" transform="translate(39,4)"/>
<path d="M0 0 C1 2 1 2 0.0625 5.125 C-0.288125 6.07375 -0.63875 7.0225 -1 8 C0.98 7.67 2.96 7.34 5 7 C4.34 5.68 3.68 4.36 3 3 C6.63 3.66 10.26 4.32 14 5 C13.67 8.3 13.34 11.6 13 15 C9 16 9 16 7 15 C8.32 14.67 9.64 14.34 11 14 C11.33 11.69 11.66 9.38 12 7 C9.03 6.505 9.03 6.505 6 6 C5.773125 6.61875 5.54625 7.2375 5.3125 7.875 C3.59445355 10.65659901 2.09004901 11.09559541 -1 12 C-1.99 12 -2.98 12 -4 12 C-4 11.34 -4 10.68 -4 10 C-4.66 9.67 -5.32 9.34 -6 9 C-5.38125 8.62875 -4.7625 8.2575 -4.125 7.875 C-1.4489404 5.51377094 -0.9063156 3.39868348 0 0 Z " fill="#209619" transform="translate(17,10)"/>
<path d="M0 0 C0.66 0 1.32 0 2 0 C2.66 0.66 3.32 1.32 4 2 C4.33 1.34 4.66 0.68 5 0 C6.32 0.33 7.64 0.66 9 1 C9.33 2.32 9.66 3.64 10 5 C10.99 4.34 11.98 3.68 13 3 C13.99 3.66 14.98 4.32 16 5 C15.67 6.32 15.34 7.64 15 9 C4.21025763 8.10673157 4.21025763 8.10673157 1 6 C0.1875 2.875 0.1875 2.875 0 0 Z " fill="#14C50A" transform="translate(28,36)"/>
<path d="M0 0 C0.33 0 0.66 0 1 0 C2.32619804 12.6591631 2.32619804 12.6591631 1 18 C-2.1776397 21.57294416 -5.55206984 23.33924685 -10 25 C-9.2421875 20.2265625 -9.2421875 20.2265625 -7.0625 18.1875 C-5 17 -5 17 -3 17 C-3 14.03 -3 11.06 -3 8 C-5.64 8.33 -8.28 8.66 -11 9 C-11 8.34 -11 7.68 -11 7 C-8.03 7 -5.06 7 -2 7 C-1.67 9.64 -1.34 12.28 -1 15 C-1.01160156 14.00097656 -1.02320313 13.00195312 -1.03515625 11.97265625 C-1.04417969 10.68230469 -1.05320312 9.39195313 -1.0625 8.0625 C-1.07410156 6.77472656 -1.08570313 5.48695312 -1.09765625 4.16015625 C-1 1 -1 1 0 0 Z " fill="#183419" transform="translate(51,26)"/>
<path d="M0 0 C2 4 2 4 2.5 6.6875 C2.665 7.450625 2.83 8.21375 3 9 C3.66 9.33 4.32 9.66 5 10 C5.33406321 14.67688498 5.39097672 17.75603396 3.0625 21.875 C0.49915143 26.42199994 0.21084574 30.85536392 0 36 C-0.33 36 -0.66 36 -1 36 C-1.08069658 33.04112541 -1.14034665 30.0844341 -1.1875 27.125 C-1.21263672 26.28324219 -1.23777344 25.44148438 -1.26367188 24.57421875 C-1.27333984 23.76855469 -1.28300781 22.96289062 -1.29296875 22.1328125 C-1.3086792 21.38918457 -1.32438965 20.64555664 -1.34057617 19.87939453 C-1.17199097 18.94909424 -1.17199097 18.94909424 -1 18 C-0.01 17.34 0.98 16.68 2 16 C2.25030977 13.41619823 2.25030977 13.41619823 2 11 C1.34 10.67 0.68 10.34 0 10 C0 6.7 0 3.4 0 0 Z " fill="#B0BAB5" transform="translate(53,7)"/>
<path d="M0 0 C4.86936788 1.42518084 8.84110664 3.12076613 13 6 C14.4375 9.25 14.4375 9.25 15 12 C12.37075618 11.05055084 10.24996648 10.20158587 8.0625 8.4375 C5.43658806 6.60731895 3.14460275 6.35734122 0 6 C-0.38218767 4.34385343 -0.71395102 2.67542976 -1 1 C-0.67 0.67 -0.34 0.34 0 0 Z " fill="#D0E0DD" transform="translate(11,37)"/>
<path d="M0 0 C0.33 0.66 0.66 1.32 1 2 C1.66 2 2.32 2 3 2 C1.56680162 7.49392713 1.56680162 7.49392713 -0.75 9.5625 C-4.15314439 10.22422252 -6.10644853 8.70982587 -9 7 C-6.19195732 4.03595495 -3.81684226 1.55500981 0 0 Z " fill="#0E800F" transform="translate(22,27)"/>
<path d="M0 0 C1.98 0.66 3.96 1.32 6 2 C5.67 4.97 5.34 7.94 5 11 C3.35 11.66 1.7 12.32 0 13 C0 8.71 0 4.42 0 0 Z " fill="#16C50B" transform="translate(42,7)"/>
<path d="M0 0 C-3.53213075 2.90881356 -7.19512711 5.46341807 -11 8 C-11.66 8.66 -12.32 9.32 -13 10 C-15.68839385 10.26991906 -18.29141936 10.08737357 -21 10 C-19 8 -19 8 -17.125 7.6875 C-14.73786794 7.13165406 -14.73786794 7.13165406 -13.0625 4.5625 C-9.38178397 -0.01051083 -5.65619865 -0.26307901 0 0 Z " fill="#E0E5E3" transform="translate(39,0)"/>
<path d="M0 0 C0 2.97 0 5.94 0 9 C-0.66 9 -1.32 9 -2 9 C-3.33333333 7.66666667 -4.66666667 6.33333333 -6 5 C-8.13309192 3.76487921 -8.13309192 3.76487921 -10 3 C-7.29536552 -0.8183075 -4.37912428 -0.24787496 0 0 Z " fill="#128011" transform="translate(48,34)"/>
<path d="M0 0 C5.65394631 -0.34615998 9.03006806 0.56574762 14 3 C14 3.99 14 4.98 14 6 C11.11082251 5.52966878 8.2376274 5.05092016 5.375 4.4375 C2.74685786 3.87922505 2.74685786 3.87922505 -1 4 C-0.67 2.68 -0.34 1.36 0 0 Z " fill="#0D1A0F" transform="translate(27,45)"/>
<path d="M0 0 C0.99 0 1.98 0 3 0 C3 4.62 3 9.24 3 14 C2.01 14 1.02 14 0 14 C0 9.38 0 4.76 0 0 Z " fill="#0E2D0D" transform="translate(10,20)"/>
<path d="M0 0 C1.62418745 -0.08090971 3.24951745 -0.13914995 4.875 -0.1875 C5.77992187 -0.22230469 6.68484375 -0.25710937 7.6171875 -0.29296875 C8.79667969 -0.14794922 8.79667969 -0.14794922 10 0 C10.66 0.99 11.32 1.98 12 3 C12.66 3.66 13.32 4.32 14 5 C13.67 5.66 13.34 6.32 13 7 C8.1725201 5.58707905 4.2837641 3.57025846 0 1 C0 0.67 0 0.34 0 0 Z " fill="#E4EDE8" transform="translate(41,0)"/>
<path d="M0 0 C3.38196041 0.52478696 6.5767294 1 10 1 C8 3 8 3 4.5234375 3.1953125 C3.14049032 3.18201493 1.75761346 3.15816232 0.375 3.125 C-0.33140625 3.11597656 -1.0378125 3.10695313 -1.765625 3.09765625 C-3.51056098 3.07407603 -5.25532295 3.03820461 -7 3 C-7 2.34 -7 1.68 -7 1 C-7.66 0.67 -8.32 0.34 -9 0 C-5.61610562 -1.12796479 -3.44180334 -0.80041938 0 0 Z " fill="#BBC8C4" transform="translate(35,49)"/>
<path d="M0 0 C0.66 0.33 1.32 0.66 2 1 C2 5.29 2 9.58 2 14 C1.01 14.495 1.01 14.495 0 15 C0 11.7 0 8.4 0 5 C-1.65 5 -3.3 5 -5 5 C-3.35 3.35 -1.7 1.7 0 0 Z " fill="#000A01" transform="translate(49,27)"/>
<path d="M0 0 C1.19496094 0.32484375 1.19496094 0.32484375 2.4140625 0.65625 C4.00347656 1.07390625 4.00347656 1.07390625 5.625 1.5 C6.66914062 1.7784375 7.71328125 2.056875 8.7890625 2.34375 C11.95687418 2.99118596 14.77741467 3.1161292 18 3 C16.3125 5.0625 16.3125 5.0625 14 7 C10.83919348 6.91895368 9.13448007 6.08200004 6.4375 4.4375 C3.89739071 2.66134332 3.89739071 2.66134332 0 3 C0 2.01 0 1.02 0 0 Z " fill="#1FA019" transform="translate(27,41)"/>
<path d="M0 0 C0.33 0 0.66 0 1 0 C1 3.3 1 6.6 1 10 C1.99 10.33 2.98 10.66 4 11 C4.1875 13.375 4.1875 13.375 4 16 C3.01 16.66 2.02 17.32 1 18 C-0.32594359 12.03325384 -0.0884587 6.07416385 0 0 Z " fill="#1E2823" transform="translate(52,7)"/>
<path d="M0 0 C1.0625 1.8125 1.0625 1.8125 2 4 C1.67 4.99 1.34 5.98 1 7 C0.67 6.67 0.34 6.34 0 6 C-0.33 7.98 -0.66 9.96 -1 12 C-1.66 12 -2.32 12 -3 12 C-3 8.37 -3 4.74 -3 1 C-2.01 0.67 -1.02 0.34 0 0 Z " fill="#1FB41A" transform="translate(16,21)"/>
<path d="M0 0 C2.875 1.125 2.875 1.125 6 3 C7.375 6.1875 7.375 6.1875 8 9 C4.54074837 7.7508258 1.85306797 6.32472205 -1 4 C-0.34 4 0.32 4 1 4 C0.67 2.68 0.34 1.36 0 0 Z " fill="#CAD8D1" transform="translate(18,40)"/>
<path d="M0 0 C2 4 2 4 2.5 6.6875 C2.665 7.450625 2.83 8.21375 3 9 C3.66 9.33 4.32 9.66 5 10 C4.67 12.31 4.34 14.62 4 17 C3.01 17 2.02 17 1 17 C1.33 16.67 1.66 16.34 2 16 C2.04063832 14.33382885 2.042721 12.66611905 2 11 C1.34 10.67 0.68 10.34 0 10 C0 6.7 0 3.4 0 0 Z " fill="#BAC4BF" transform="translate(53,7)"/>
<path d="M0 0 C-0.33 0.99 -0.66 1.98 -1 3 C-1.66 3 -2.32 3 -3 3 C-3 3.66 -3 4.32 -3 5 C-4.65 5 -6.3 5 -8 5 C-8 5.66 -8 6.32 -8 7 C-9.98 7.66 -11.96 8.32 -14 9 C-10.44113418 5.11760093 -5.62095916 0 0 0 Z " fill="#373B3A" transform="translate(41,0)"/>
<path d="M0 0 C0.33 0.66 0.66 1.32 1 2 C0.33333333 4 -0.33333333 6 -1 8 C-0.67 8.66 -0.34 9.32 0 10 C-1.98 10.99 -1.98 10.99 -4 12 C-4 11.34 -4 10.68 -4 10 C-4.66 9.67 -5.32 9.34 -6 9 C-5.38125 8.62875 -4.7625 8.2575 -4.125 7.875 C-1.4489404 5.51377094 -0.9063156 3.39868348 0 0 Z " fill="#47594A" transform="translate(17,10)"/>
<path d="M0 0 C1.65 0 3.3 0 5 0 C5.33 1.65 5.66 3.3 6 5 C4.02 4.01 2.04 3.02 0 2 C0 1.34 0 0.68 0 0 Z " fill="#0D190D" transform="translate(10,34)"/>
<path d="M0 0 C2.31 0 4.62 0 7 0 C7 0.66 7 1.32 7 2 C7.66 2.33 8.32 2.66 9 3 C6 4 6 4 2.8125 2.5625 C1.884375 2.046875 0.95625 1.53125 0 1 C0 0.67 0 0.34 0 0 Z " fill="#187017" transform="translate(13,33)"/>
<path d="M0 0 C0 1.65 0 3.3 0 5 C-0.99 5 -1.98 5 -3 5 C-3.33 5.66 -3.66 6.32 -4 7 C-4 5.68 -4 4.36 -4 3 C-4.66 3 -5.32 3 -6 3 C-5.67 2.34 -5.34 1.68 -5 1 C-3.3176559 0.47426747 -1.77322566 0 0 0 Z " fill="#012502" transform="translate(40,15)"/>
<path d="M0 0 C4.75 0.75 4.75 0.75 7 3 C6.67 3.66 6.34 4.32 6 5 C4.02 4.34 2.04 3.68 0 3 C0 2.01 0 1.02 0 0 Z " fill="#DEDFE2" transform="translate(48,2)"/>
<path d="M0 0 C0.66 0 1.32 0 2 0 C2 1.65 2 3.3 2 5 C2.66 5 3.32 5 4 5 C4.33 4.34 4.66 3.68 5 3 C5 3.99 5 4.98 5 6 C3.35 6 1.7 6 0 6 C-0.38218767 4.34385343 -0.71395102 2.67542976 -1 1 C-0.67 0.67 -0.34 0.34 0 0 Z " fill="#E0EBEB" transform="translate(11,37)"/>
<path d="M0 0 C0.99 0.66 1.98 1.32 3 2 C2.34 3.98 1.68 5.96 1 8 C0.67 8 0.34 8 0 8 C0 6.35 0 4.7 0 3 C-1.98 3 -3.96 3 -6 3 C-6 2.67 -6 2.34 -6 2 C-4.02 2 -2.04 2 0 2 C0 1.34 0 0.68 0 0 Z " fill="#033102" transform="translate(31,12)"/>
<path d="M0 0 C0.99 0.33 1.98 0.66 3 1 C3 1.66 3 2.32 3 3 C0.36 3.66 -2.28 4.32 -5 5 C-3.35 3.35 -1.7 1.7 0 0 Z " fill="#BDC5C2" transform="translate(50,44)"/>
</svg>
